<?xml version="1.0" encoding="utf-8"?>
<svg width="20" height="20" viewBox="0 0 20 20" fill="none" xmlns="http://www.w3.org/2000/svg">
  <g>
    <rect width="20" height="20" />
    <path id="Path" d="M2.60421 0C1.0711 0 -0.236262 1.29399 0.0361507 2.91898C0.443076 5.34636 1.55177 9.48781 4.59429 12.5303C7.76886 15.7049 12.2304 17.1362 14.843 17.7427C16.5235 18.1328 17.958 16.8051 17.958 15.1821L17.958 12.5677C17.958 12.2565 17.7658 11.9777 17.475 11.8668L14.2402 10.6342C14.1096 10.5844 13.9677 10.5721 13.8305 10.5987L10.6524 11.2145C8.6612 10.1774 7.46553 9.02831 6.73609 7.33508L7.33688 4.11236C7.36196 3.97783 7.34975 3.83899 7.30158 3.7109L6.08871 0.485986C5.97875 0.193609 5.69909 0 5.38672 0L2.60421 0L2.60421 0ZM17.2079 12.8668L18.2079 11.8668L17.2082 12.8668L17.2079 12.8668L17.2079 12.8668ZM13.906 12.112L16.458 13.0845L16.458 15.1821C16.458 15.9432 15.824 16.4306 15.1822 16.2816C12.6515 15.6941 8.52739 14.3421 5.65495 11.4697C2.94235 8.75707 1.90417 4.98946 1.51551 2.67098C1.41508 2.07192 1.88223 1.5 2.60421 1.5L4.8675 1.5L5.82395 4.04312L5.22066 7.27922C5.19461 7.41896 5.2088 7.56323 5.2616 7.69521C6.18166 9.99537 7.77422 11.4503 10.2049 12.6703C10.3529 12.7446 10.5214 12.7678 10.684 12.7363L13.906 12.112L13.906 12.112Z" fill="#E5BF9B" fill-rule="evenodd" transform="translate(1.125 0.917)" />
  </g>
</svg>