<?xml version="1.0" standalone="no"?>
<!DOCTYPE svg PUBLIC "-//W3C//DTD SVG 20010904//EN"
 "http://www.w3.org/TR/2001/REC-SVG-20010904/DTD/svg10.dtd">
<svg version="1.0" xmlns="http://www.w3.org/2000/svg"
 width="1920.000000pt" height="800.000000pt" viewBox="0 0 1920.000000 800.000000"
 preserveAspectRatio="xMidYMid meet">

<g transform="translate(0.000000,800.000000) scale(0.100000,-0.100000)"
fill="#000000" stroke="none">
<path d="M0 4000 l0 -4000 9600 0 9600 0 0 4000 0 4000 -9600 0 -9600 0 0
-4000z m12055 2945 c271 -54 499 -177 695 -374 244 -245 371 -536 387 -886 12
-287 -61 -546 -223 -792 -30 -44 -54 -85 -54 -90 0 -4 17 -18 38 -30 76 -44
210 -151 315 -252 185 -179 311 -352 422 -583 273 -567 269 -1222 -10 -1778
-453 -903 -1485 -1337 -2446 -1029 -609 195 -1105 686 -1304 1292 -284 868 25
1786 778 2311 54 37 97 70 97 72 0 3 -23 39 -51 81 -107 158 -183 351 -215
542 -24 148 -15 378 19 516 47 183 122 342 233 490 64 86 206 224 294 287 174
124 398 211 610 237 101 13 318 6 415 -14z"/>
</g>
</svg>
