<?xml version="1.0" standalone="no"?>
<!DOCTYPE svg PUBLIC "-//W3C//DTD SVG 20010904//EN"
 "http://www.w3.org/TR/2001/REC-SVG-20010904/DTD/svg10.dtd">
<svg version="1.0" xmlns="http://www.w3.org/2000/svg"
 width="800.000000pt" height="1920.000000pt" viewBox="0 0 800.000000 1920.000000"
 preserveAspectRatio="xMidYMid meet">

<g transform="translate(0.000000,1920.000000) scale(0.100000,-0.100000)"
fill="#000000" stroke="none">
<path d="M0 9600 l0 -9600 4000 0 4000 0 0 9600 0 9600 -4000 0 -4000 0 0
-9600z m4213 8615 c267 -47 484 -160 678 -354 247 -247 369 -541 369 -891 0
-250 -70 -478 -211 -687 -27 -40 -49 -76 -49 -81 0 -5 33 -31 73 -57 102 -68
208 -158 312 -266 318 -330 491 -724 527 -1198 35 -460 -122 -950 -422 -1316
-77 -94 -247 -257 -343 -329 -225 -167 -481 -281 -776 -343 -114 -24 -147 -27
-351 -27 -235 -1 -291 5 -471 50 -370 92 -718 302 -967 584 -509 577 -626
1396 -296 2080 151 313 378 577 654 761 44 30 80 56 80 59 0 3 -29 50 -64 104
-173 261 -241 608 -180 911 18 90 69 246 101 310 183 365 521 617 927 690 98
18 306 18 409 0z"/>
</g>
</svg>
